<svg width="549" height="529" viewBox="0 0 549 529" fill="none" xmlns="http://www.w3.org/2000/svg">
<rect x="1" y="298" width="17" height="76" rx="8.5" fill="#F7F7F7" stroke="#979797" stroke-width="2"/>
<rect x="1" y="206" width="17" height="76" rx="8.5" fill="#F7F7F7" stroke="#979797" stroke-width="2"/>
<g filter="url(#filter0_d_1031_299)">
<rect x="11" y="4" width="530" height="517" rx="57" fill="#F7F7F7"/>
<rect x="12" y="5" width="528" height="515" rx="56" stroke="#979797" stroke-width="2"/>
</g>
<rect x="32" y="25" width="488" height="467" rx="44" fill="white" stroke="#979797" stroke-width="2"/>
<path d="M366.5 47C366.5 52.7783 361.596 57.5 355.5 57.5C349.404 57.5 344.5 52.7783 344.5 47C344.5 41.2217 349.404 36.5 355.5 36.5C361.596 36.5 366.5 41.2217 366.5 47Z" stroke="#979797"/>
<rect x="205.5" y="53.5" width="14" height="127" rx="7" transform="rotate(-90 205.5 53.5)" fill="white" stroke="#979797"/>
<defs>
<filter id="filter0_d_1031_299" x="7" y="0" width="542" height="529" filterUnits="userSpaceOnUse" color-interpolation-filters="sRGB">
<feFlood flood-opacity="0" result="BackgroundImageFix"/>
<feColorMatrix in="SourceAlpha" type="matrix" values="0 0 0 0 0 0 0 0 0 0 0 0 0 0 0 0 0 0 127 0" result="hardAlpha"/>
<feMorphology radius="1" operator="dilate" in="SourceAlpha" result="effect1_dropShadow_1031_299"/>
<feOffset dx="2" dy="2"/>
<feGaussianBlur stdDeviation="2.5"/>
<feComposite in2="hardAlpha" operator="out"/>
<feColorMatrix type="matrix" values="0 0 0 0 0 0 0 0 0 0 0 0 0 0 0 0 0 0 0.25 0"/>
<feBlend mode="normal" in2="BackgroundImageFix" result="effect1_dropShadow_1031_299"/>
<feBlend mode="normal" in="SourceGraphic" in2="effect1_dropShadow_1031_299" result="shape"/>
</filter>
</defs>
</svg>
