<svg width="166" height="190" viewBox="0 0 166 190" fill="none" xmlns="http://www.w3.org/2000/svg">
<path d="M69.8 104.6L71.4 105.8L72.5143 104.314L71.1151 103.093L69.8 104.6ZM52.2 18.6H54.2V16.6H52.2V18.6ZM31.2 18.6V16.6H29.2V18.6H31.2ZM0.8 128.4L-0.373393 126.78L-2.34399 128.208L-0.561693 129.865L0.8 128.4ZM15 141.6L13.6383 143.065L14.915 144.252L16.2651 143.149L15 141.6ZM42.2 100.6L44.0462 99.8308L41.8342 94.5222L40.2749 100.058L42.2 100.6ZM57.8 120.6L56.6095 122.207L58.2071 123.391L59.4 121.8L57.8 120.6ZM133 129.2L134.454 130.573L135.918 129.023L134.277 127.661L133 129.2ZM104.2 16.2H106.2V14.2H104.2V16.2ZM83.2 16.2V14.2H81.2V16.2H83.2ZM48.2 140.2L47.0145 138.589L45.1129 139.989L46.8061 141.634L48.2 140.2ZM62.4 154L61.0061 155.434L62.2446 156.638L63.6158 155.588L62.4 154ZM94 106.2L95.9095 105.605L93.7765 98.7572L92.0582 105.721L94 106.2ZM119.4 143.6L118.094 145.114L119.541 146.363L120.854 144.973L119.4 143.6ZM165.4 189.8V191.8H167.4V189.8H165.4ZM165.4 0.199991H167.4V-1.80001H165.4V0.199991ZM144.2 0.199991V-1.80001H142.2V0.199991H144.2ZM144.2 68V70H146.2V68H144.2ZM115.4 68V66H113.4V68H115.4ZM115.4 86.2H113.4V88.2H115.4V86.2ZM144.2 86.2H146.2V84.2H144.2V86.2ZM144.2 189.8H142.2V191.8H144.2V189.8ZM71.1151 103.093C65.8302 98.4809 61.6683 93.4217 58.7764 84.5549C55.8494 75.5802 54.2 62.6298 54.2 42.2H50.2C50.2 62.7702 51.8506 76.2198 54.9736 85.7951C58.1317 95.4783 62.7698 101.119 68.4849 106.107L71.1151 103.093ZM54.2 42.2V18.6H50.2V42.2H54.2ZM52.2 16.6H31.2V20.6H52.2V16.6ZM29.2 18.6V43H33.2V18.6H29.2ZM29.2 43C29.2 86.1699 18.4461 113.146 -0.373393 126.78L1.97339 130.02C22.3539 115.254 33.2 86.63 33.2 43H29.2ZM-0.561693 129.865L13.6383 143.065L16.3617 140.135L2.16169 126.935L-0.561693 129.865ZM16.2651 143.149C28.5734 133.097 40.0103 115.75 44.1251 101.142L40.2749 100.058C36.3897 113.85 25.4266 130.503 13.7349 140.051L16.2651 143.149ZM40.3538 101.369C41.9471 105.193 44.6116 109.353 47.5319 113.041C50.4507 116.728 53.7239 120.07 56.6095 122.207L58.9905 118.993C56.4761 117.13 53.4493 114.072 50.6681 110.559C47.8884 107.047 45.4529 103.207 44.0462 99.8308L40.3538 101.369ZM59.4 121.8L71.4 105.8L68.2 103.4L56.2 119.4L59.4 121.8ZM134.277 127.661C114.924 111.598 106.2 87.3047 106.2 50H102.2C102.2 87.8953 111.076 113.602 131.723 130.739L134.277 127.661ZM106.2 50V16.2H102.2V50H106.2ZM104.2 14.2H83.2V18.2H104.2V14.2ZM81.2 16.2V51.2H85.2V16.2H81.2ZM81.2 51.2C81.2 86.9607 71.2503 120.752 47.0145 138.589L49.3855 141.811C75.1497 122.848 85.2 87.4393 85.2 51.2H81.2ZM46.8061 141.634L61.0061 155.434L63.7939 152.566L49.5939 138.766L46.8061 141.634ZM63.6158 155.588C70.2561 150.504 77.349 142.208 83.2427 133.304C89.1346 124.403 93.9659 114.687 95.9418 106.679L92.0582 105.721C90.2341 113.113 85.6654 122.397 79.9073 131.096C74.151 139.792 67.3439 147.696 61.1842 152.412L63.6158 155.588ZM92.0905 106.795C94.0703 113.151 97.9843 120.484 102.649 127.304C107.32 134.132 112.831 140.574 118.094 145.114L120.706 142.086C115.769 137.826 110.48 131.668 105.951 125.046C101.416 118.416 97.7297 111.449 95.9095 105.605L92.0905 106.795ZM120.854 144.973L134.454 130.573L131.546 127.827L117.946 142.227L120.854 144.973ZM167.4 189.8V0.199991H163.4V189.8H167.4ZM165.4 -1.80001H144.2V2.19999H165.4V-1.80001ZM142.2 0.199991V68H146.2V0.199991H142.2ZM144.2 66H115.4V70H144.2V66ZM113.4 68V86.2H117.4V68H113.4ZM115.4 88.2H144.2V84.2H115.4V88.2ZM142.2 86.2V189.8H146.2V86.2H142.2ZM144.2 191.8H165.4V187.8H144.2V191.8Z" fill="#6562FF"/>
</svg>
