<svg width="172" height="187" viewBox="0 0 172 187" fill="none" xmlns="http://www.w3.org/2000/svg">
<path d="M159.2 168.8L160.92 169.821L162.536 167.097L159.382 166.808L159.2 168.8ZM97 114.4H99V112.4H97V114.4ZM74.8 114.4V112.4H72.8V114.4H74.8ZM11.6 168.8L11.4884 166.803L8.0402 166.996L9.92358 169.891L11.6 168.8ZM22.4 185.4L20.7236 186.491L21.4187 187.559L22.6808 187.38L22.4 185.4ZM86.2 146.4L88.0129 145.555L86.1062 141.463L84.3563 145.625L86.2 146.4ZM148.4 187L148.113 188.979L149.437 189.171L150.12 188.021L148.4 187ZM151.2 66V68H153.2V66H151.2ZM151.2 48.8H153.2V46.8H151.2V48.8ZM44.8 48.8H42.8V50.8H44.8V48.8ZM44.8 18V16H42.8V18H44.8ZM149.8 18V20H151.8V18H149.8ZM149.8 0.199999H151.8V-1.8H149.8V0.199999ZM23 0.199999V-1.8H21V0.199999H23ZM23 66H21V68H23V66ZM171.6 101.2V103.2H173.6V101.2H171.6ZM171.6 83.6H173.6V81.6H171.6V83.6ZM0.4 83.6V81.6H-1.6V83.6H0.4ZM0.4 101.2H-1.6V103.2H0.4V101.2ZM159.382 166.808C143.352 165.342 128.166 159.179 117.025 150.544C105.848 141.881 99 130.952 99 120H95C95 132.648 102.852 144.619 114.575 153.706C126.334 162.821 142.248 169.258 159.018 170.792L159.382 166.808ZM99 120V114.4H95V120H99ZM97 112.4H74.8V116.4H97V112.4ZM72.8 114.4V120H76.8V114.4H72.8ZM72.8 120C72.8 130.927 65.58 142.157 54.0584 150.988C42.5862 159.781 27.1676 165.927 11.4884 166.803L11.7116 170.797C28.2324 169.873 44.4138 163.419 56.4917 154.162C68.5201 144.943 76.8 132.673 76.8 120H72.8ZM9.92358 169.891L20.7236 186.491L24.0764 184.309L13.2764 167.709L9.92358 169.891ZM22.6808 187.38C36.377 185.438 50.7316 179.985 62.6115 172.785C74.4343 165.621 84.1045 156.544 88.0437 147.175L84.3563 145.625C80.8955 153.856 72.0658 162.379 60.5385 169.365C49.0684 176.315 35.223 181.562 22.1192 183.42L22.6808 187.38ZM84.3871 147.245C88.6912 156.483 97.649 165.885 108.909 173.459C120.196 181.052 133.975 186.93 148.113 188.979L148.687 185.021C135.225 183.07 122.004 177.448 111.141 170.141C100.251 162.815 91.9088 153.917 88.0129 145.555L84.3871 147.245ZM150.12 188.021L160.92 169.821L157.48 167.779L146.68 185.979L150.12 188.021ZM153.2 66V48.8H149.2V66H153.2ZM151.2 46.8H44.8V50.8H151.2V46.8ZM46.8 48.8V18H42.8V48.8H46.8ZM44.8 20H149.8V16H44.8V20ZM151.8 18V0.199999H147.8V18H151.8ZM149.8 -1.8H23V2.2H149.8V-1.8ZM21 0.199999V66H25V0.199999H21ZM23 68H151.2V64H23V68ZM173.6 101.2V83.6H169.6V101.2H173.6ZM171.6 81.6H0.4V85.6H171.6V81.6ZM-1.6 83.6V101.2H2.4V83.6H-1.6ZM0.4 103.2H171.6V99.2H0.4V103.2Z" fill="#6562FF"/>
</svg>
