<svg width="171" height="133" viewBox="0 0 171 133" fill="none" xmlns="http://www.w3.org/2000/svg">
<path d="M151.2 0.599991H153.2V-1.40001H151.2V0.599991ZM140.6 100L140.247 101.969L142.091 102.3L142.541 100.481L140.6 100ZM117.2 95.8L115.364 95.0058L114.362 97.3226L116.847 97.7685L117.2 95.8ZM127 21.6L129 21.63L129.03 19.6H127V21.6ZM20 21.6H18V23.6H20V21.6ZM20 0.599991V-1.40001H18V0.599991H20ZM0.8 132.6H-1.2V134.6H0.8V132.6ZM0.8 111.6V109.6H-1.2V111.6H0.8ZM64.2 111.6V113.6H66.2V111.6H64.2ZM64.2 54.6V52.6H62.2V54.6H64.2ZM87.4 54.6H89.4V52.6H87.4V54.6ZM87.4 111.6H85.4V113.6H87.4V111.6ZM171 111.6H173V109.6H171V111.6ZM171 132.6V134.6H173V132.6H171ZM149.2 0.599991C149.2 38.2145 145.677 71.1802 138.659 99.5192L142.541 100.481C149.656 71.7531 153.2 38.4521 153.2 0.599991H149.2ZM140.953 98.0315L117.553 93.8315L116.847 97.7685L140.247 101.969L140.953 98.0315ZM119.036 96.5942C125.209 82.3262 128.466 57.2308 129 21.63L125 21.57C124.467 57.1692 121.191 81.5405 115.364 95.0058L119.036 96.5942ZM127 19.6H20V23.6H127V19.6ZM22 21.6V0.599991H18V21.6H22ZM20 2.59999H151.2V-1.40001H20V2.59999ZM2.8 132.6V111.6H-1.2V132.6H2.8ZM0.8 113.6H64.2V109.6H0.8V113.6ZM66.2 111.6V54.6H62.2V111.6H66.2ZM64.2 56.6H87.4V52.6H64.2V56.6ZM85.4 54.6V111.6H89.4V54.6H85.4ZM87.4 113.6H171V109.6H87.4V113.6ZM169 111.6V132.6H173V111.6H169ZM171 130.6H0.8V134.6H171V130.6Z" fill="#9896FF"/>
</svg>
