<svg width="573" height="138" viewBox="0 0 573 138" fill="none" xmlns="http://www.w3.org/2000/svg">
<path d="M125.2 62.7998V44.5998H9.60005V62.7998H57.0001V66.5998C57.0001 92.3998 29 112.4 0.800049 120.2L9.80005 138C35.4 131.2 57.4001 114.4 68.2001 97.5998C78.4 114.6 98.8001 130.4 125.8 137L135.2 119.2C106.8 112.2 78.8001 91.7998 78.8001 65.9998V62.7998H125.2ZM100.4 33.9998V15.7998H35.2001V33.9998H100.4Z" fill="black"/>
<path d="M338.4 102.8C338.4 80.9999 318.6 67.9999 293.2 67.9999C267.8 67.9999 248 80.9999 248 102.8C248 124.2 267.8 137.8 293.2 137.8C318.2 137.8 338.4 124.2 338.4 102.8ZM356.4 60.9999V42.7999H229.4V60.9999H356.4ZM318 102.8C318 113.2 307.8 119.8 293.2 119.8C278.6 119.8 268.4 113.2 268.4 102.8C268.4 92.1999 278.6 85.7999 293.2 85.7999C307.8 85.7999 318 92.1999 318 102.8ZM324.6 29.5999V11.3999H261.4V29.5999H324.6Z" fill="black"/>
<path d="M448 45H570V61H448V45Z" fill="#C4C4C4"/>
<path d="M570.2 28.2002H447.8V46.4002H570.2V28.2002ZM573 112.2H543L549.6 58.8002L530.2 56.2002L523.4 112.2H493.6L488.4 56.2002L468.8 58.8002L474.2 112.2H444.8V130.2H573V112.2Z" fill="black"/>
<path fill-rule="evenodd" clip-rule="evenodd" d="M467.506 95.9112L464.962 99.4293C464.806 99.6451 464.492 99.6845 464.261 99.5172L460.49 96.7907C460.259 96.6234 460.198 96.3128 460.354 96.0969C460.51 95.881 460.824 95.8416 461.055 96.0089L463.815 98.004L459.504 76.0622L460.496 75.9378L464.807 97.8797L466.668 95.3053C466.825 95.0894 467.139 95.05 467.37 95.2173C467.601 95.3847 467.662 95.6953 467.506 95.9112Z" fill="#BFBFBF"/>
<path fill-rule="evenodd" clip-rule="evenodd" d="M556.78 96.7799L552.911 99.4114C552.673 99.5729 552.36 99.5263 552.211 99.3075L549.785 95.7408C549.637 95.5219 549.708 95.2136 549.946 95.0521C550.183 94.8906 550.496 94.9371 550.645 95.156L552.42 97.766L557.506 75.9269L558.495 76.0739L553.409 97.9129L556.241 95.9873C556.478 95.8259 556.791 95.8724 556.94 96.0913C557.089 96.3101 557.017 96.6185 556.78 96.7799Z" fill="#BFBFBF"/>
<path fill-rule="evenodd" clip-rule="evenodd" d="M262.646 4.3534C262.451 4.15814 262.451 3.84156 262.646 3.6463L265.828 0.464317C266.024 0.269055 266.34 0.269055 266.536 0.464317C266.731 0.65958 266.731 0.976162 266.536 1.17142L264.207 3.49985L321.793 3.49985L319.464 1.17142C319.269 0.976157 319.269 0.659575 319.464 0.464313C319.66 0.269051 319.976 0.269051 320.172 0.464313L323.354 3.64629C323.549 3.84156 323.549 4.15814 323.354 4.3534L320.172 7.53538C319.976 7.73064 319.66 7.73064 319.464 7.53538C319.269 7.34012 319.269 7.02354 319.464 6.82827L321.793 4.49985L264.207 4.49985L266.536 6.82828C266.731 7.02354 266.731 7.34012 266.536 7.53539C266.34 7.73065 266.024 7.73065 265.828 7.53539L262.646 4.3534Z" fill="#BFBFBF"/>
<path fill-rule="evenodd" clip-rule="evenodd" d="M35.6464 8.3534C35.4512 8.15814 35.4512 7.84156 35.6464 7.6463L38.8284 4.46432C39.0237 4.26906 39.3403 4.26906 39.5355 4.46432C39.7308 4.65958 39.7308 4.97616 39.5355 5.17142L37.2071 7.49985H98.7929L96.4645 5.17142C96.2692 4.97616 96.2692 4.65958 96.4645 4.46432C96.6597 4.26906 96.9763 4.26906 97.1716 4.46432L100.354 7.6463C100.549 7.84156 100.549 8.15814 100.354 8.3534L97.1716 11.5354C96.9763 11.7306 96.6597 11.7306 96.4645 11.5354C96.2692 11.3401 96.2692 11.0235 96.4645 10.8283L98.7929 8.49985H37.2071L39.5355 10.8283C39.7308 11.0235 39.7308 11.3401 39.5355 11.5354C39.3403 11.7306 39.0237 11.7306 38.8284 11.5354L35.6464 8.3534Z" fill="#BFBFBF"/>
<path fill-rule="evenodd" clip-rule="evenodd" d="M228.646 37.3534C228.451 37.1581 228.451 36.8416 228.646 36.6463L231.828 33.4643C232.024 33.2691 232.34 33.2691 232.536 33.4643C232.731 33.6596 232.731 33.9762 232.536 34.1714L230.207 36.4999L354.793 36.4998L352.464 34.1714C352.269 33.9762 352.269 33.6596 352.464 33.4643C352.66 33.269 352.976 33.269 353.172 33.4643L356.354 36.6463C356.549 36.8415 356.549 37.1581 356.354 37.3534L353.172 40.5354C352.976 40.7306 352.66 40.7306 352.464 40.5354C352.269 40.3401 352.269 40.0235 352.464 39.8283L354.793 37.4998L230.207 37.4999L232.536 39.8283C232.731 40.0235 232.731 40.3401 232.536 40.5354C232.34 40.7306 232.024 40.7306 231.828 40.5354L228.646 37.3534Z" fill="#BFBFBF"/>
<path fill-rule="evenodd" clip-rule="evenodd" d="M10.6464 37.3534C10.4512 37.1581 10.4512 36.8416 10.6464 36.6463L13.8284 33.4643C14.0237 33.2691 14.3403 33.2691 14.5355 33.4643C14.7308 33.6596 14.7308 33.9762 14.5355 34.1714L12.2071 36.4999H122.793L120.464 34.1714C120.269 33.9762 120.269 33.6596 120.464 33.4643C120.66 33.2691 120.976 33.2691 121.172 33.4643L124.354 36.6463C124.549 36.8416 124.549 37.1581 124.354 37.3534L121.172 40.5354C120.976 40.7306 120.66 40.7306 120.464 40.5354C120.269 40.3401 120.269 40.0235 120.464 39.8283L122.793 37.4999H12.2071L14.5355 39.8283C14.7308 40.0235 14.7308 40.3401 14.5355 40.5354C14.3403 40.7306 14.0237 40.7306 13.8284 40.5354L10.6464 37.3534Z" fill="#BFBFBF"/>
</svg>
