<svg width="580" height="149" viewBox="0 0 580 149" fill="none" xmlns="http://www.w3.org/2000/svg">
<g filter="url(#filter0_d_979_312)">
<path d="M91 24.5C91 36.3741 81.3741 46 69.5 46C57.6259 46 48 36.3741 48 24.5C48 12.6259 57.6259 3 69.5 3C81.3741 3 91 12.6259 91 24.5Z" fill="#C4C4C4"/>
<path d="M498 48.6001H529.2V108.4H498V48.6001ZM555.6 108.4V48.6001H573.2V27.6001H453.8V48.6001H471.6V108.4H451V129.4H576V108.4H555.6Z" fill="black"/>
<path fill-rule="evenodd" clip-rule="evenodd" d="M461.195 88.532L458.115 91.7541C457.926 91.9518 457.609 91.956 457.408 91.7634L454.124 88.6247C453.923 88.4321 453.912 88.1157 454.101 87.918C454.29 87.7202 454.607 87.7161 454.809 87.9087L457.211 90.2054L456.5 68.0065L457.5 67.9934L458.211 90.1923L460.465 87.8345C460.654 87.6368 460.97 87.6327 461.172 87.8253C461.373 88.0179 461.384 88.3343 461.195 88.532Z" fill="#BFBFBF"/>
<path fill-rule="evenodd" clip-rule="evenodd" d="M565.555 88.532L568.635 91.7541C568.824 91.9518 569.141 91.956 569.342 91.7634L572.626 88.6247C572.827 88.4321 572.838 88.1157 572.649 87.918C572.46 87.7202 572.143 87.7161 571.941 87.9087L569.539 90.2054L570.25 68.0065L569.25 67.9934L568.539 90.1923L566.285 87.8345C566.096 87.6368 565.78 87.6327 565.578 87.8253C565.377 88.0179 565.366 88.3343 565.555 88.532Z" fill="#BFBFBF"/>
<path d="M316 21.5C316 33.3741 306.374 43 294.5 43C282.626 43 273 33.3741 273 21.5C273 9.62588 282.626 0 294.5 0C306.374 0 316 9.62588 316 21.5Z" fill="#C4C4C4"/>
<path d="M85.8 67.7998H129.6V46.1998H83.4V18.7998H57V46.1998H10.8V67.7998H54.2V69.5998C54.2 91.5998 40.2 110.4 4.40002 116.6L16 137.2C43.4 131.6 61.2 118.6 70 99.9998C78.8 118.6 96.6 131.6 124 137.2L135.8 116.6C100 110.4 85.8 91.5998 85.8 69.5998V67.7998Z" fill="black"/>
<path d="M294.8 118.6C282.6 118.6 273.4 114 273.4 104.8C273.4 95.6002 282.6 91.0002 294.8 91.0002C306.8 91.0002 316.2 95.6002 316.2 104.8C316.2 114 306.8 118.6 294.8 118.6ZM294.8 68.8002C267 68.8002 246.4 83.8002 246.4 104.8C246.4 125.8 267 140.8 294.8 140.8C322.6 140.8 343 125.8 343 104.8C343 83.8002 322.6 68.8002 294.8 68.8002ZM308 38.0002V15.2002H281.6V38.0002H233.8V59.4002H355.2V38.0002H308Z" fill="black"/>
</g>
<defs>
<filter id="filter0_d_979_312" x="0.400024" y="0" width="579.6" height="148.8" filterUnits="userSpaceOnUse" color-interpolation-filters="sRGB">
<feFlood flood-opacity="0" result="BackgroundImageFix"/>
<feColorMatrix in="SourceAlpha" type="matrix" values="0 0 0 0 0 0 0 0 0 0 0 0 0 0 0 0 0 0 127 0" result="hardAlpha"/>
<feOffset dy="4"/>
<feGaussianBlur stdDeviation="2"/>
<feComposite in2="hardAlpha" operator="out"/>
<feColorMatrix type="matrix" values="0 0 0 0 0 0 0 0 0 0 0 0 0 0 0 0 0 0 0.25 0"/>
<feBlend mode="normal" in2="BackgroundImageFix" result="effect1_dropShadow_979_312"/>
<feBlend mode="normal" in="SourceGraphic" in2="effect1_dropShadow_979_312" result="shape"/>
</filter>
</defs>
</svg>
